<svg width="113" height="36" viewBox="0 0 113 36" fill="none" xmlns="http://www.w3.org/2000/svg"><g id="Ema Logo"><path id="Fill 2" fill-rule="evenodd" clip-rule="evenodd" d="M84.8039 17.7558C86.0414 17.7558 87.3636 18.5652 87.3636 20.8369V31.3699H92.9555V19.5002C92.9555 13.6142 88.7919 12.9785 87.0019 12.9785C84.5036 12.9785 82.7604 13.8329 81.1729 15.8348L81.0175 16.0306L80.903 15.8074C79.6441 13.3462 77.1219 12.9785 75.7309 12.9785C73.7281 12.9785 72.0692 13.8206 70.6596 15.5526L70.3731 15.9046V13.3434H64.7812V31.3699H70.3731V19.9058L70.3911 19.8703C71.0858 18.5067 72.2013 17.7558 73.5327 17.7558C74.7702 17.7558 76.0923 18.5652 76.0923 20.8369V31.3699H81.6845V19.8643L81.7036 19.828C82.4166 18.4725 83.4886 17.7558 84.8039 17.7558Z" fill="white"></path><path id="Fill 4" fill-rule="evenodd" clip-rule="evenodd" d="M106.475 26.4356L106.402 26.4842C105.475 27.0985 104.35 27.7265 103.036 27.7265C101.748 27.7265 100.916 27.0261 100.916 25.942C100.916 24.7229 101.958 24.3658 103.118 24.0807C103.808 23.9059 105.228 23.7396 106.298 23.6315L106.475 23.6132V26.4356ZM113.002 29.8941C112.032 28.9101 111.748 27.9265 111.748 26.6149V19.3374C111.748 15.3299 109.029 12.9375 104.475 12.9375C102.288 12.9375 100.251 13.3275 98.5788 14.0657L97.3582 19.2781C99.4634 18.2405 101.454 17.7554 103.596 17.7554C105.56 17.7554 106.475 18.5026 106.475 20.1073V20.8249L106.328 20.8378C104.311 21.0143 101.534 21.3322 99.7635 21.845C96.7762 22.6965 95.3242 24.3679 95.3242 26.9546C95.3242 29.6122 97.6902 31.7745 100.598 31.7745C102.832 31.7745 104.782 30.8764 106.558 29.0285L106.835 28.7397C106.835 28.7397 106.857 30.2215 108.797 31.8609L113.002 29.8941Z" fill="white"></path><path id="Fill 6" fill-rule="evenodd" clip-rule="evenodd" d="M49.7012 26.1874L49.7353 25.9944C50.0652 24.1359 50.2827 22.2171 50.3829 20.2908L50.3908 20.1356H59.913V15.2598H50.3831L50.3746 15.1051C50.2704 13.2248 50.0521 11.3464 49.7258 9.52125L49.6915 9.32822H61.5994L60.6591 4.09375H42.3828C43.9542 8.18322 44.7837 12.9108 44.7837 17.7847C44.7837 22.6307 43.9628 27.3359 42.4081 31.41H61.019L61.9591 26.1874H49.7012Z" fill="white"></path><path id="Fill 8" fill-rule="evenodd" clip-rule="evenodd" d="M18.1279 36C26.841 36 34.1643 30.0896 36.2585 22.0903C33.9017 26.1014 29.5216 28.62 24.5067 28.62C21.9886 28.62 20.2608 28.0606 18.2383 26.8762C25.9091 27.7522 32.3585 23.901 34.09 17.4856C36.2732 8.74298 28.9205 0 18.1292 0C8.10207 0 0 8.05888 0 17.9999C0 27.9411 8.11674 36 18.1292 36H18.1279Z" fill="white"></path></g></svg>