<svg width="128" height="36" viewBox="0 0 128 36" fill="none" xmlns="http://www.w3.org/2000/svg" class="_logoSvg_j9vnr_10" aria-label="HelloCounsel" role="img"><path opacity="0.05" d="M19.4723 19.4803L10.5897 28.3629L1.70703 19.4803V16.5194L10.5897 7.63672L19.4723 16.5194V19.4803Z" fill="currentColor"></path><path d="M11.3279 7.63671V10.5976C11.3279 10.7939 11.25 10.9822 11.1111 11.121C10.9723 11.2598 10.784 11.3378 10.5877 11.3378C10.3914 11.3378 10.2031 11.2598 10.0643 11.121C9.92549 10.9822 9.8475 10.7939 9.8475 10.5976V7.63671C9.8475 7.44039 9.92549 7.25211 10.0643 7.11329C10.2031 6.97447 10.3914 6.89648 10.5877 6.89648C10.784 6.89648 10.9723 6.97447 11.1111 7.11329C11.25 7.25211 11.3279 7.44039 11.3279 7.63671ZM15.0291 11.3378C14.8327 11.3378 14.6445 11.4158 14.5056 11.5546C14.3668 11.6934 14.2888 11.8817 14.2888 12.078V15.0389C14.2888 15.2352 14.3668 15.4235 14.5056 15.5623C14.6445 15.7012 14.8327 15.7791 15.0291 15.7791C15.2254 15.7791 15.4136 15.7012 15.5525 15.5623C15.6913 15.4235 15.7693 15.2352 15.7693 15.0389V12.078C15.7693 11.8817 15.6913 11.6934 15.5525 11.5546C15.4136 11.4158 15.2254 11.3378 15.0291 11.3378ZM10.5877 24.6618C10.3914 24.6618 10.2031 24.7398 10.0643 24.8786C9.92549 25.0174 9.8475 25.2057 9.8475 25.402V28.3629C9.8475 28.5592 9.92549 28.7475 10.0643 28.8863C10.2031 29.0251 10.3914 29.1031 10.5877 29.1031C10.784 29.1031 10.9723 29.0251 11.1111 28.8863C11.25 28.7475 11.3279 28.5592 11.3279 28.3629V25.402C11.3279 25.2057 11.25 25.0174 11.1111 24.8786C10.9723 24.7398 10.784 24.6618 10.5877 24.6618ZM10.5877 13.5585C10.3914 13.5585 10.2031 13.6365 10.0643 13.7753C9.92549 13.9141 9.8475 14.1024 9.8475 14.2987V21.7009C9.8475 21.8972 9.92549 22.0855 10.0643 22.2243C10.2031 22.3631 10.3914 22.4411 10.5877 22.4411C10.784 22.4411 10.9723 22.3631 11.1111 22.2243C11.25 22.0855 11.3279 21.8972 11.3279 21.7009V14.2987C11.3279 14.1024 11.25 13.9141 11.1111 13.7753C10.9723 13.6365 10.784 13.5585 10.5877 13.5585ZM6.14639 11.3378C5.95008 11.3378 5.7618 11.4158 5.62298 11.5546C5.48416 11.6934 5.40617 11.8817 5.40617 12.078V17.2596C5.40617 17.4559 5.48416 17.6442 5.62298 17.783C5.7618 17.9218 5.95008 17.9998 6.14639 17.9998C6.34271 17.9998 6.53099 17.9218 6.66981 17.783C6.80863 17.6442 6.88662 17.4559 6.88662 17.2596V12.078C6.88662 11.8817 6.80863 11.6934 6.66981 11.5546C6.53099 11.4158 6.34271 11.3378 6.14639 11.3378ZM15.0291 17.9998C14.8327 17.9998 14.6445 18.0778 14.5056 18.2166C14.3668 18.3554 14.2888 18.5437 14.2888 18.74V23.9216C14.2888 24.1179 14.3668 24.3062 14.5056 24.445C14.6445 24.5838 14.8327 24.6618 15.0291 24.6618C15.2254 24.6618 15.4136 24.5838 15.5525 24.445C15.6913 24.3062 15.7693 24.1179 15.7693 23.9216V18.74C15.7693 18.5437 15.6913 18.3554 15.5525 18.2166C15.4136 18.0778 15.2254 17.9998 15.0291 17.9998ZM1.70507 15.7791C1.50875 15.7791 1.32047 15.8571 1.18165 15.9959C1.04283 16.1348 0.964844 16.323 0.964844 16.5194V19.4802C0.964844 19.6766 1.04283 19.8648 1.18165 20.0037C1.32047 20.1425 1.50875 20.2205 1.70507 20.2205C1.90138 20.2205 2.08966 20.1425 2.22848 20.0037C2.3673 19.8648 2.44529 19.6766 2.44529 19.4802V16.5194C2.44529 16.323 2.3673 16.1348 2.22848 15.9959C2.08966 15.8571 1.90138 15.7791 1.70507 15.7791ZM6.14639 20.2205C5.95008 20.2205 5.7618 20.2985 5.62298 20.4373C5.48416 20.5761 5.40617 20.7644 5.40617 20.9607V23.9216C5.40617 24.1179 5.48416 24.3062 5.62298 24.445C5.7618 24.5838 5.95008 24.6618 6.14639 24.6618C6.34271 24.6618 6.53099 24.5838 6.66981 24.445C6.80863 24.3062 6.88662 24.1179 6.88662 23.9216V20.9607C6.88662 20.7644 6.80863 20.5761 6.66981 20.4373C6.53099 20.2985 6.34271 20.2205 6.14639 20.2205ZM19.4704 15.7791C19.2741 15.7791 19.0858 15.8571 18.947 15.9959C18.8081 16.1348 18.7302 16.323 18.7302 16.5194V19.4802C18.7302 19.6766 18.8081 19.8648 18.947 20.0037C19.0858 20.1425 19.2741 20.2205 19.4704 20.2205C19.6667 20.2205 19.855 20.1425 19.9938 20.0037C20.1326 19.8648 20.2106 19.6766 20.2106 19.4802V16.5194C20.2106 16.323 20.1326 16.1348 19.9938 15.9959C19.855 15.8571 19.6667 15.7791 19.4704 15.7791Z" fill="currentColor"></path><path d="M124.828 23.8631V11.6494H126.966V23.8631H124.828Z" fill="currentColor"></path><path d="M119.36 24.0328C118.444 24.0328 117.641 23.8406 116.951 23.4561C116.273 23.0716 115.741 22.5401 115.357 21.8615C114.984 21.183 114.797 20.4027 114.797 19.5206C114.797 18.6385 114.984 17.8638 115.357 17.1966C115.741 16.5181 116.273 15.9922 116.951 15.619C117.63 15.2345 118.422 15.0422 119.326 15.0422C120.186 15.0422 120.932 15.2232 121.566 15.5851C122.199 15.9356 122.691 16.4332 123.041 17.0778C123.392 17.7225 123.567 18.4745 123.567 19.334C123.567 19.4923 123.562 19.6393 123.55 19.775C123.539 19.9107 123.522 20.0464 123.499 20.1821H116.12V18.6894H121.854L121.413 19.0965C121.413 18.2822 121.226 17.6716 120.853 17.2644C120.48 16.8573 119.96 16.6538 119.292 16.6538C118.569 16.6538 117.992 16.9026 117.562 17.4002C117.144 17.8977 116.935 18.6159 116.935 19.5545C116.935 20.4818 117.144 21.1943 117.562 21.6919C117.992 22.1782 118.597 22.4213 119.377 22.4213C119.83 22.4213 120.225 22.3365 120.565 22.1669C120.904 21.9972 121.153 21.7371 121.311 21.3866H123.33C123.047 22.2008 122.566 22.8454 121.888 23.3204C121.221 23.7954 120.378 24.0328 119.36 24.0328Z" fill="currentColor"></path><path d="M110.444 24.0331C109.245 24.0331 108.289 23.7843 107.577 23.2867C106.864 22.7778 106.474 22.0766 106.406 21.1832H108.357C108.414 21.6243 108.623 21.9579 108.985 22.1841C109.347 22.4103 109.833 22.5233 110.444 22.5233C110.998 22.5233 111.41 22.4385 111.682 22.2689C111.965 22.0879 112.106 21.8335 112.106 21.5055C112.106 21.2681 112.027 21.0758 111.868 20.9288C111.71 20.7705 111.41 20.6404 110.969 20.5386L109.578 20.2163C108.628 20.0128 107.922 19.6961 107.458 19.2664C107.006 18.8253 106.779 18.2768 106.779 17.6209C106.779 16.818 107.085 16.1903 107.695 15.738C108.317 15.2743 109.171 15.0425 110.257 15.0425C111.331 15.0425 112.191 15.2743 112.835 15.738C113.491 16.1903 113.853 16.818 113.921 17.6209H111.97C111.914 17.2703 111.733 17.0046 111.427 16.8236C111.133 16.6427 110.726 16.5522 110.206 16.5522C109.72 16.5522 109.352 16.6314 109.103 16.7897C108.855 16.9367 108.73 17.1573 108.73 17.4513C108.73 17.6775 108.826 17.8697 109.019 18.028C109.211 18.1751 109.533 18.3051 109.986 18.4182L111.478 18.7575C112.326 18.9497 112.965 19.2833 113.395 19.7583C113.836 20.2333 114.057 20.7931 114.057 21.4377C114.057 22.2632 113.74 22.9022 113.107 23.3546C112.473 23.8069 111.586 24.0331 110.444 24.0331Z" fill="currentColor"></path><path d="M97.1211 23.8635V15.2121H99.2076V17.2477H99.2585V23.8635H97.1211ZM103.194 23.8635V18.4012C103.194 17.8697 103.058 17.4682 102.787 17.1968C102.515 16.9254 102.12 16.7897 101.599 16.7897C101.147 16.7897 100.74 16.8915 100.378 17.0951C100.027 17.2986 99.7504 17.5813 99.5469 17.9432C99.3546 18.3051 99.2585 18.7235 99.2585 19.1985L99.038 17.129C99.332 16.4957 99.7617 15.9924 100.327 15.6192C100.893 15.2347 101.571 15.0425 102.363 15.0425C103.301 15.0425 104.031 15.3082 104.551 15.8398C105.083 16.3713 105.348 17.0781 105.348 17.9602V23.8635H103.194Z" fill="currentColor"></path><path d="M90.0218 24.0329C89.4225 24.0329 88.9022 23.9085 88.4612 23.6597C88.0315 23.3996 87.6978 23.049 87.4604 22.608C87.2342 22.1669 87.1211 21.6693 87.1211 21.1152V15.2119H89.2585V20.6741C89.2585 21.2057 89.3885 21.6071 89.6486 21.8785C89.9201 22.1499 90.2989 22.2857 90.7852 22.2857C91.2262 22.2857 91.6107 22.1839 91.9387 21.9803C92.278 21.7768 92.5437 21.494 92.736 21.1321C92.9395 20.7589 93.0413 20.3405 93.0413 19.8769L93.2618 21.9464C92.9791 22.5797 92.555 23.0886 91.9896 23.4731C91.4355 23.8463 90.7795 24.0329 90.0218 24.0329ZM93.1092 23.8633V21.8276H93.0413V15.2119H95.1957V23.8633H93.1092Z" fill="currentColor"></path><path d="M81.3758 24.0331C80.4597 24.0331 79.6512 23.8408 78.95 23.4563C78.2602 23.0718 77.723 22.5403 77.3385 21.8618C76.954 21.1719 76.7617 20.386 76.7617 19.5039C76.7617 18.6218 76.954 17.8471 77.3385 17.1799C77.723 16.5126 78.2602 15.9924 78.95 15.6192C79.6512 15.2347 80.4597 15.0425 81.3758 15.0425C82.3031 15.0425 83.1117 15.2347 83.8015 15.6192C84.4914 15.9924 85.0286 16.5126 85.4131 17.1799C85.7976 17.8471 85.9898 18.6218 85.9898 19.5039C85.9898 20.386 85.7919 21.1719 85.3961 21.8618C85.0116 22.5403 84.4744 23.0718 83.7846 23.4563C83.0947 23.8408 82.2918 24.0331 81.3758 24.0331ZM81.3758 22.3198C81.8281 22.3198 82.2352 22.2067 82.5971 21.9805C82.959 21.743 83.2417 21.4151 83.4453 20.9966C83.6489 20.5669 83.7506 20.0636 83.7506 19.4869C83.7506 18.6387 83.5245 17.9715 83.0721 17.4852C82.6311 16.9989 82.0656 16.7558 81.3758 16.7558C80.6859 16.7558 80.1148 16.9989 79.6625 17.4852C79.2101 17.9715 78.9839 18.6387 78.9839 19.4869C78.9839 20.0636 79.0857 20.5669 79.2893 20.9966C79.5041 21.4151 79.7869 21.743 80.1374 21.9805C80.4993 22.2067 80.9121 22.3198 81.3758 22.3198Z" fill="currentColor"></path><path d="M70.634 24.0329C69.7632 24.0329 68.9602 23.8802 68.2252 23.5749C67.5014 23.2582 66.8681 22.8172 66.3252 22.2517C65.7824 21.6863 65.364 21.0191 65.07 20.2501C64.7759 19.4811 64.6289 18.6385 64.6289 17.7225C64.6289 16.8065 64.7759 15.9696 65.07 15.2119C65.364 14.4542 65.7768 13.7983 66.3083 13.2442C66.8511 12.6787 67.4844 12.2433 68.2082 11.938C68.9433 11.6327 69.7519 11.48 70.634 11.48C71.6065 11.48 72.483 11.6722 73.2633 12.0567C74.0436 12.4412 74.6826 12.9841 75.1802 13.6852C75.6891 14.3751 76 15.1893 76.1131 16.128H73.9418C73.8061 15.2119 73.4386 14.5108 72.8392 14.0245C72.2398 13.5269 71.5104 13.2781 70.6509 13.2781C69.8932 13.2781 69.2316 13.459 68.6662 13.8209C68.1008 14.1828 67.6597 14.6974 67.3431 15.3646C67.0264 16.0205 66.8681 16.8008 66.8681 17.7056C66.8681 18.6329 67.0264 19.4358 67.3431 20.1144C67.6597 20.7816 68.1064 21.3018 68.6832 21.675C69.2599 22.0482 69.9215 22.2348 70.6679 22.2348C71.5047 22.2348 72.2229 21.9916 72.8222 21.5054C73.4216 21.0078 73.8005 20.3066 73.9588 19.4019H76.1471C76.0114 20.3292 75.6891 21.1435 75.1802 21.8446C74.6826 22.5458 74.0436 23.0886 73.2633 23.4731C72.483 23.8463 71.6065 24.0329 70.634 24.0329Z" fill="currentColor"></path><path d="M59.3881 24.0331C58.5399 24.0331 57.7935 23.8352 57.1489 23.4394C56.5043 23.0436 56.001 22.5064 55.6391 21.8278C55.2886 21.138 55.1133 20.3633 55.1133 19.5039C55.1133 18.6331 55.2942 17.8641 55.6561 17.1968C56.018 16.5296 56.5156 16.0037 57.1489 15.6192C57.7935 15.2347 58.5399 15.0425 59.3881 15.0425C60.2475 15.0425 60.9939 15.2347 61.6272 15.6192C62.2718 16.0037 62.7694 16.5296 63.12 17.1968C63.4819 17.8641 63.6628 18.6331 63.6628 19.5039C63.6628 20.3633 63.4819 21.138 63.12 21.8278C62.7694 22.5064 62.2718 23.0436 61.6272 23.4394C60.9939 23.8352 60.2475 24.0331 59.3881 24.0331ZM59.3881 22.8796C59.9761 22.8796 60.485 22.7382 60.9148 22.4555C61.3445 22.1615 61.6781 21.76 61.9156 21.2511C62.1531 20.7422 62.2718 20.1541 62.2718 19.4869C62.2718 18.4917 62.0061 17.6944 61.4746 17.0951C60.9543 16.4957 60.2589 16.196 59.3881 16.196C58.5286 16.196 57.8331 16.4957 57.3016 17.0951C56.77 17.6944 56.5043 18.4917 56.5043 19.4869C56.5043 20.1541 56.623 20.7422 56.8605 21.2511C57.098 21.76 57.4316 22.1615 57.8614 22.4555C58.3024 22.7382 58.8113 22.8796 59.3881 22.8796Z" fill="currentColor"></path><path d="M52.0547 23.8631V11.6494H53.4118V23.8631H52.0547Z" fill="currentColor"></path><path d="M48.3203 23.8633V11.6497H49.6774V23.8633H48.3203Z" fill="currentColor"></path><path d="M42.6301 24.0328C41.8046 24.0328 41.0752 23.8406 40.4419 23.4561C39.8086 23.0603 39.311 22.5231 38.9491 21.8446C38.5872 21.166 38.4062 20.3857 38.4062 19.5036C38.4062 18.6215 38.5815 17.8469 38.9321 17.1796C39.294 16.5011 39.7973 15.9752 40.4419 15.602C41.0865 15.2288 41.8272 15.0422 42.6641 15.0422C43.467 15.0422 44.1625 15.2175 44.7506 15.5681C45.3499 15.9187 45.808 16.4106 46.1246 17.0439C46.4526 17.6772 46.6165 18.4236 46.6165 19.2831C46.6165 19.3962 46.6109 19.5036 46.5996 19.6054C46.5996 19.7072 46.5883 19.8203 46.5657 19.9447H39.4241V18.8081H45.7344L45.2934 19.4358C45.2934 18.3953 45.0616 17.5981 44.5979 17.0439C44.1455 16.4785 43.5009 16.1957 42.6641 16.1957C41.8046 16.1957 41.1091 16.4954 40.5776 17.0948C40.0574 17.6829 39.7973 18.4802 39.7973 19.4866C39.7973 20.5158 40.0574 21.3413 40.5776 21.9633C41.1091 22.574 41.8159 22.8793 42.698 22.8793C43.2521 22.8793 43.7384 22.7606 44.1568 22.5231C44.5753 22.2743 44.8806 21.9237 45.0729 21.4714H46.3621C46.0794 22.263 45.6044 22.8906 44.9372 23.3543C44.2812 23.8067 43.5122 24.0328 42.6301 24.0328Z" fill="currentColor"></path><path d="M27.0352 23.8633V11.6497H28.4262V23.8633H27.0352ZM35.2115 23.8633V11.6497H36.6025V23.8633H35.2115ZM27.7476 16.8914H35.8222V18.1127H27.7476V16.8914Z" fill="currentColor"></path></svg>