
<svg width="127" height="38" viewBox="0 0 127 38" fill="none" xmlns="http://www.w3.org/2000/svg">
<path fill-rule="evenodd" clip-rule="evenodd" d="M9.40944 0.491306C4.26699 1.94448 0.53723 6.22034 0.0714445 11.197C-0.0773141 12.7839 -0.0299341 12.9345 0.564752 12.7675C0.926371 12.666 3.6211 12.6885 6.55307 12.8172L11.8833 13.0514L12.0446 19.8453C12.2366 27.9436 12.3149 28.5164 13.5897 31.1081C15.288 34.5612 18.9732 37.238 22.7632 37.7712L24.3898 38V25.4992V12.9989L26.531 12.5901C31.717 11.6004 35.8613 7.09782 36.4741 1.78751L36.6803 0L23.8286 0.0239572C14.7512 0.0411207 10.5169 0.178429 9.40944 0.491306Z" fill="url(#paint0_linear_3190_2020)"/>
<path d="M118.806 29.1837C117.654 29.1837 116.688 28.993 115.907 28.6116C115.146 28.2111 114.579 27.6867 114.207 27.0383C113.854 26.3708 113.678 25.6366 113.678 24.8356C113.678 23.9775 113.892 23.2146 114.319 22.5472C114.746 21.8797 115.406 21.3553 116.298 20.9738C117.19 20.5924 118.304 20.4017 119.642 20.4017H123.098C123.098 19.7152 123.005 19.1526 122.819 18.714C122.652 18.2563 122.373 17.913 121.983 17.6842C121.612 17.4553 121.11 17.3409 120.478 17.3409C119.791 17.3409 119.205 17.4935 118.722 17.7986C118.258 18.1037 117.97 18.5614 117.858 19.1717H114.068C114.18 18.1419 114.514 17.2551 115.071 16.5113C115.629 15.7485 116.372 15.1573 117.301 14.7378C118.249 14.2991 119.317 14.0798 120.506 14.0798C121.825 14.0798 122.968 14.3087 123.934 14.7664C124.919 15.2241 125.671 15.882 126.192 16.7402C126.731 17.5984 127 18.6568 127 19.9154V28.8404H123.711L123.265 26.6664C123.079 27.0478 122.838 27.3911 122.541 27.6962C122.262 28.0013 121.937 28.2683 121.565 28.4972C121.194 28.707 120.776 28.8691 120.311 28.9835C119.865 29.117 119.363 29.1837 118.806 29.1837ZM119.754 26.0943C120.218 26.0943 120.636 26.018 121.008 25.8654C121.379 25.6938 121.695 25.4554 121.955 25.1503C122.216 24.8452 122.429 24.5019 122.596 24.1205C122.764 23.72 122.875 23.2909 122.931 22.8332V22.8046H120.116C119.577 22.8046 119.131 22.8809 118.778 23.0335C118.444 23.167 118.193 23.3672 118.026 23.6342C117.858 23.8821 117.775 24.1682 117.775 24.4924C117.775 24.8356 117.858 25.1312 118.026 25.3791C118.193 25.6271 118.425 25.8082 118.722 25.9227C119.02 26.0371 119.363 26.0943 119.754 26.0943Z" fill="black"/>
<path d="M103.67 28.8404V14.4231H107.126L107.488 17.0834C107.841 16.4541 108.269 15.9201 108.77 15.4815C109.272 15.0429 109.857 14.6996 110.526 14.4517C111.195 14.2038 111.92 14.0798 112.7 14.0798V18.3135H111.39C110.833 18.3135 110.312 18.3802 109.829 18.5137C109.365 18.6472 108.956 18.8665 108.603 19.1717C108.269 19.4577 108.008 19.8582 107.823 20.3731C107.655 20.869 107.572 21.4983 107.572 22.2611V28.8404H103.67Z" fill="black"/>
<path d="M94.3806 29.1837C93.0429 29.1837 91.8351 28.8691 90.7575 28.2397C89.6798 27.5913 88.8251 26.695 88.1934 25.5508C87.5803 24.4065 87.2737 23.1097 87.2737 21.6604C87.2737 20.1729 87.5803 18.857 88.1934 17.7128C88.8251 16.5685 89.6798 15.6818 90.7575 15.0524C91.8351 14.404 93.0522 14.0798 94.4085 14.0798C95.7649 14.0798 96.9819 14.404 98.0596 15.0524C99.1372 15.6818 99.9826 16.5685 100.596 17.7128C101.227 18.8379 101.543 20.1443 101.543 21.6318C101.543 23.1193 101.227 24.4351 100.596 25.5794C99.964 26.7045 99.1093 27.5913 98.0317 28.2397C96.9726 28.8691 95.7556 29.1837 94.3806 29.1837ZM94.3806 25.7224C94.9938 25.7224 95.5326 25.5698 95.9971 25.2647C96.4616 24.9596 96.8333 24.5019 97.112 23.8916C97.4092 23.2814 97.5579 22.5281 97.5579 21.6318C97.5579 20.7355 97.4185 19.9822 97.1398 19.3719C96.8611 18.7617 96.4802 18.304 95.9971 17.9988C95.5326 17.6937 95.0031 17.5411 94.4085 17.5411C93.8325 17.5411 93.303 17.6937 92.8199 17.9988C92.3368 18.304 91.9559 18.7617 91.6772 19.3719C91.3985 19.9822 91.2592 20.7355 91.2592 21.6318C91.2592 22.5281 91.3985 23.2814 91.6772 23.8916C91.9559 24.5019 92.3275 24.9596 92.792 25.2647C93.2751 25.5698 93.8047 25.7224 94.3806 25.7224Z" fill="black"/>
<path d="M71.5243 28.8404V14.4231H74.9524L75.2311 16.7688C75.6584 15.9678 76.2623 15.3194 77.0426 14.8236C77.8416 14.3278 78.7985 14.0798 79.9133 14.0798C81.0653 14.0798 82.0407 14.3373 82.8397 14.8522C83.6387 15.348 84.2425 16.0727 84.6513 17.0262C85.0786 17.9798 85.2923 19.1526 85.2923 20.5448V28.8404H81.4183V20.9166C81.4183 19.8105 81.1861 18.9619 80.7215 18.3707C80.2756 17.7605 79.5603 17.4553 78.5755 17.4553C77.9809 17.4553 77.4421 17.6079 76.959 17.913C76.4759 18.1991 76.095 18.6186 75.8163 19.1717C75.5562 19.7057 75.4262 20.3636 75.4262 21.1455V28.8404H71.5243Z" fill="black"/>
<path d="M62.5369 29.1837C61.1248 29.1837 59.8707 28.8786 58.7744 28.2683C57.6968 27.639 56.8514 26.7713 56.2382 25.6652C55.6251 24.54 55.3185 23.2432 55.3185 21.7748C55.3185 20.2873 55.6158 18.9714 56.2103 17.8272C56.8235 16.6639 57.6689 15.7485 58.7465 15.081C59.8428 14.4136 61.1155 14.0798 62.5648 14.0798C63.9583 14.0798 65.1753 14.3945 66.2158 15.0238C67.2749 15.6532 68.0924 16.5018 68.6684 17.5697C69.263 18.6377 69.5603 19.8677 69.5603 21.2599C69.5603 21.4506 69.551 21.6604 69.5324 21.8892C69.5324 22.1181 69.5138 22.366 69.4767 22.633H58.1055V20.2015H65.6027C65.5469 19.3242 65.2311 18.6282 64.6551 18.1133C64.0977 17.5793 63.4009 17.3123 62.5648 17.3123C61.9331 17.3123 61.3571 17.4649 60.8368 17.77C60.3166 18.0751 59.9078 18.5233 59.6105 19.1145C59.3132 19.7056 59.1646 20.4589 59.1646 21.3743V22.2039C59.1646 22.9476 59.304 23.6056 59.5827 24.1777C59.8614 24.7307 60.2516 25.1598 60.7532 25.465C61.2549 25.7701 61.8402 25.9227 62.5091 25.9227C63.178 25.9227 63.7261 25.7796 64.1534 25.4936C64.5993 25.2075 64.9338 24.8356 65.1568 24.3779H69.1422C68.8821 25.2743 68.4362 26.0848 67.8044 26.8094C67.1913 27.5341 66.4388 28.1158 65.5469 28.5544C64.6551 28.9739 63.6517 29.1837 62.5369 29.1837Z" fill="black"/>
<path d="M47.2432 28.8405V12.0489H41.5576V8.81641H56.8028V12.0489H51.1172V28.8405H47.2432Z" fill="black"/>
<defs>
<linearGradient id="paint0_linear_3190_2020" x1="6.09666" y1="5.00602" x2="8.97929" y2="36.6993" gradientUnits="userSpaceOnUse">
<stop offset="0.035" stop-color="#2B69AC"/>
<stop offset="0.515" stop-color="#6EBCE6"/>
<stop offset="1" stop-color="#A8D9F9"/>
</linearGradient>
</defs>
</svg>
