
<svg width="221" height="35" viewBox="0 0 221 35" fill="none" xmlns="http://www.w3.org/2000/svg">
<g clip-path="url(#clip0_5665_554)">
<path d="M171.725 16.4853C170.758 15.9187 169.452 15.4311 167.846 15.0358C166.514 14.6931 165.495 14.3769 164.79 14.087C164.124 13.8102 163.667 13.494 163.432 13.1645C163.197 12.8351 163.079 12.4002 163.079 11.8731C163.079 11.0429 163.38 10.384 164.006 9.88329C164.646 9.35618 165.534 9.09263 166.631 9.09263C167.533 9.09263 168.29 9.25076 168.917 9.56703C169.531 9.88329 170.014 10.3313 170.367 10.8848C170.732 11.4514 170.954 12.1103 171.059 12.8351L171.098 13.125H174.154L174.089 12.5979C173.945 11.3855 173.553 10.2786 172.939 9.31665C172.326 8.35468 171.477 7.59038 170.432 7.02374C169.387 6.47027 168.12 6.19354 166.684 6.19354C165.339 6.19354 164.15 6.43074 163.158 6.91831C162.165 7.40589 161.381 8.09113 160.833 8.96086C160.297 9.83058 160.023 10.8453 160.023 11.9917C160.023 13.0064 160.232 13.863 160.65 14.5614C161.068 15.2598 161.734 15.8528 162.648 16.3404C163.536 16.8016 164.738 17.2233 166.227 17.6186C167.728 18.0007 168.865 18.3697 169.622 18.7519C170.34 19.1077 170.837 19.503 171.085 19.9115C171.333 20.32 171.451 20.7944 171.451 21.3347C171.451 21.9145 171.307 22.4153 171.007 22.8106C170.719 23.2059 170.275 23.5222 169.714 23.733C169.126 23.9571 168.395 24.0361 167.533 24.0361C166.566 24.0361 165.717 23.9043 165.038 23.5749C164.372 23.2586 163.824 22.7842 163.432 22.1649C163.027 21.5324 162.766 20.7549 162.648 19.8588L162.609 19.5689H159.579L159.605 20.0828C159.723 21.4269 160.115 22.6393 160.768 23.654C161.434 24.6818 162.348 25.4988 163.484 26.0787C164.62 26.6585 165.952 26.9484 167.467 26.9484C168.812 26.9484 170.014 26.7112 171.059 26.2631C172.117 25.8019 172.952 25.1299 173.553 24.2601C174.167 23.3904 174.467 22.3494 174.467 21.1634C174.467 20.1882 174.245 19.3053 173.827 18.541C173.397 17.7767 172.691 17.0915 171.699 16.5117L171.725 16.4853Z" fill="black"/>
<path d="M49.8242 9.3561H55.4139V26.6584H58.3262V9.3561H64.0726V6.41748H49.8242V9.3561Z" fill="black"/>
<path d="M109.965 20.2673C109.965 22.323 108.306 23.9966 106.269 23.9966C104.232 23.9966 102.573 22.323 102.573 20.2673V11.491H99.6738V20.2673C99.6738 23.9307 102.638 26.922 106.269 26.922C109.9 26.922 112.864 23.9307 112.864 20.2673V11.491H109.965V20.2673Z" fill="black"/>
<path d="M89.5255 11.2537C85.2419 11.2537 81.7549 14.7722 81.7549 19.0944C81.7549 23.4167 85.2419 26.9352 89.5255 26.9352C93.8092 26.9352 97.2962 23.4167 97.2962 19.0944C97.2962 14.7722 93.8092 11.2537 89.5255 11.2537ZM89.5255 23.9965C86.8352 23.9965 84.6542 21.7959 84.6542 19.0813C84.6542 16.3667 86.8352 14.166 89.5255 14.166C92.2159 14.166 94.3969 16.3667 94.3969 19.0813C94.3969 21.7959 92.2159 23.9965 89.5255 23.9965Z" fill="black"/>
<path d="M202.115 11.2537C197.832 11.2537 194.345 14.7722 194.345 19.0944C194.345 23.4167 197.832 26.9352 202.115 26.9352C206.399 26.9352 209.886 23.4167 209.886 19.0944C209.886 14.7722 206.399 11.2537 202.115 11.2537ZM202.115 23.9965C199.425 23.9965 197.244 21.7959 197.244 19.0813C197.244 16.3667 199.425 14.166 202.115 14.166C204.806 14.166 206.987 16.3667 206.987 19.0813C206.987 21.7959 204.806 23.9965 202.115 23.9965Z" fill="black"/>
<path d="M217.16 6.40442H214.261V11.491H210.578V14.4164H214.261V22.3494C214.261 24.7214 216.181 26.6585 218.532 26.6585H221V23.7331H218.532C217.774 23.7331 217.16 23.1137 217.16 22.3494V14.4164H221V11.491H217.16V6.40442Z" fill="black"/>
<path d="M139.01 11.2537C137.352 11.2537 135.98 11.8994 134.975 12.9273H134.544L134.975 10.8847V6.41748H132.062V26.6716H134.975V17.9479C134.975 15.8791 136.633 14.2055 138.684 14.2055C140.734 14.2055 142.393 15.8791 142.393 17.9479V26.6716H145.305V17.9479C145.305 14.2582 142.667 11.2669 139.01 11.2669V11.2537Z" fill="black"/>
<path d="M185.046 11.2537C182.944 11.2537 181.089 12.0971 179.823 13.4676H179.392L179.809 11.5041H179.823H176.91V34.5914H179.823V26.7243L179.378 24.6686H179.823C181.102 26.0786 182.905 26.9483 185.046 26.9483C189.03 26.9483 192.465 23.4167 192.465 19.0813C192.465 14.7458 189.017 11.2801 185.06 11.2801L185.046 11.2537ZM184.707 23.9965C182.03 23.9965 179.849 21.7959 179.849 19.0944C179.849 16.393 182.03 14.1923 184.707 14.1923C187.384 14.1923 189.565 16.393 189.565 19.0944C189.565 21.7959 187.384 23.9965 184.707 23.9965Z" fill="black"/>
<path d="M73.2008 11.2537C71.5422 11.2537 70.1709 11.8994 69.1653 12.9273H68.7343L69.1653 10.8847V6.41748H66.2529V26.6716H69.1653V17.9479C69.1653 15.8791 70.8239 14.1923 72.8743 14.1923C74.9247 14.1923 76.5833 15.8791 76.5833 17.9479V26.6716H79.4957V17.9479C79.4957 14.2582 76.8576 11.2669 73.2008 11.2669V11.2537Z" fill="black"/>
<path d="M34.2692 0H0V6.40435H34.2692V0Z" fill="black"/>
<path d="M34.2698 8.53918H21.249V14.9435H34.2698V8.53918Z" fill="black"/>
<path d="M8.31917 8.53918H0V14.9435H8.31917C11.4274 14.9435 13.9611 17.5 13.9611 20.6363V34.5783H20.3082V20.6363C20.3082 13.9684 14.9275 8.53918 8.31917 8.53918Z" fill="black"/>
<path d="M27.766 24.247C24.8275 24.247 22.4375 26.6585 22.4375 29.6235C22.4375 32.5885 24.8275 35 27.766 35C30.7044 35 33.0944 32.5885 33.0944 29.6235C33.0944 26.6585 30.7044 24.247 27.766 24.247Z" fill="black"/>
<path d="M129.712 12.8878C129.712 11.9785 128.98 11.2537 128.092 11.2537C127.204 11.2537 126.473 11.9917 126.473 12.8878C126.473 13.0064 126.512 13.0986 126.538 13.204C125.376 12.0049 123.769 11.2537 121.967 11.2537C118.454 11.2537 115.581 14.1396 115.581 17.6976C115.581 19.4766 116.299 21.0052 117.448 22.0858L116.573 23.0214C115.594 24.0229 115.306 25.512 115.842 26.8034C116.377 28.0948 117.631 28.9382 119.016 28.9382H125.35C126.094 28.9382 126.695 29.5443 126.695 30.2955C126.695 31.0466 126.094 31.6528 125.35 31.6528H115.137V34.5914H125.35C127.7 34.5914 129.607 32.6674 129.607 30.2955C129.607 27.9235 127.7 25.9995 125.35 25.9995H118.14V25.5515L120.086 23.5221C120.674 23.6803 121.288 23.7989 121.941 23.7989C125.454 23.7989 128.327 21.2424 128.327 17.6976C128.327 16.4853 127.975 15.3652 127.387 14.39C127.387 14.39 127.387 14.3768 127.387 14.3637C127.596 14.4691 127.831 14.535 128.079 14.535C128.98 14.535 129.699 13.797 129.699 12.9009L129.712 12.8878ZM121.967 21.2029C120.047 21.2029 118.48 19.6215 118.48 17.6844C118.48 15.7473 120.047 14.166 121.967 14.166C123.887 14.166 125.454 15.7473 125.454 17.6844C125.454 19.6215 123.887 21.2029 121.967 21.2029Z" fill="black"/>
<path d="M153.128 6.40442H150.229V11.491H146.546V14.4164H150.229V22.3494C150.229 24.7214 152.149 26.6585 154.499 26.6585H156.968V23.7331H154.499C153.742 23.7331 153.128 23.1137 153.128 22.3494V14.4164H156.968V11.491H153.128V6.40442Z" fill="black"/>
</g>
<defs>
<clipPath id="clip0_5665_554">
<rect width="221" height="35" fill="black"/>
</clipPath>
</defs>
</svg>
