<svg xmlns="http://www.w3.org/2000/svg" fill="none" viewBox="0 0 90 36" class="text-text-primary-l0 h-9 w-[90px]"><path fill="currentColor" d="M85.883 9.932 87.313 12h-.556l-.962-1.403q-.073-.107-.157-.216c-.044-.073-.093-.144-.144-.223h-.007l-.125.18-.189.27-.98 1.39h-.574l1.487-2.068L83.74 8h.569l.923 1.33c.044.066.088.125.125.193.032.042.069.096.13.186h.008l.063-.09.063-.096.125-.186.912-1.335h.55zM75.286 8.129c.336.142.515.428.586.935.017.175.024.27.024.769 0 .916-.007 1.052-.07 1.351-.072.346-.244.57-.527.687-.248.106-.45.129-1.03.129-.692 0-.882-.023-1.135-.129-.283-.122-.448-.34-.525-.687-.065-.306-.072-.435-.072-1.344 0-.816.035-1.046.195-1.345q.194-.353.692-.454A6 6 0 0 1 74.217 8c.6 0 .837.03 1.069.129m-2.107.442c-.118.135-.172.31-.195.64-.007.083-.007.083-.007.786 0 .81 0 .81.035 1.034.042.27.149.435.332.504.16.065.325.083.852.083.721 0 .916-.035 1.053-.189.118-.135.172-.31.195-.64.007-.083.007-.083.007-.792 0-.804 0-.804-.037-1.028-.042-.27-.148-.435-.332-.506-.16-.064-.331-.083-.851-.083-.72.002-.915.037-1.052.19M61.791 8h1.735c.5 0 .648.024.805.12.259.155.358.426.358.948 0 .498-.117.702-.499.84v.01c.471.116.623.342.623.954 0 .498-.129.827-.376.978-.152.09-.429.15-.729.15h-1.917zm1.606 1.764c.37 0 .493-.02.623-.097.17-.096.228-.251.228-.623 0-.348-.06-.503-.223-.595-.095-.047-.2-.06-.512-.06H62.23v1.373h1.167zm-.224 1.846c.653 0 .805-.012.953-.078.177-.078.247-.246.247-.618 0-.384-.06-.564-.206-.666-.14-.09-.2-.096-.795-.096h-1.14v1.456h.941zM50.71 8h1.87c.589 0 .918.101 1.135.348.267.306.352.66.352 1.482 0 .979-.043 1.308-.2 1.595a.96.96 0 0 1-.693.51 2.4 2.4 0 0 1-.479.065H50.71zm1.775 3.611c.443 0 .758-.09.898-.252.176-.216.23-.508.23-1.277 0-.965-.035-1.193-.211-1.428-.146-.193-.377-.264-.82-.264h-1.415v3.221zM40.769 9.745h2.122v.378H40.77v1.487h2.216V12H40.3V8h2.686v.39H40.77zM32.566 12h-.447V8.439l.007-.12h-.012c-.017.06-.035.102-.054.15-.024.055-.03.066-.09.222L30.618 12h-.454L28.81 8.733l-.077-.186-.035-.096-.036-.09h-.011l.006.109V12h-.447V8h.777l1.063 2.59.166.413.084.21.084.21h.012l.084-.21.084-.21.167-.414L31.786 8h.789v4zM87.807 29.322a8.56 8.56 0 0 1-7.882 5.182c-4.669 0-8.47-3.73-8.556-8.346H90l-.025-.585C89.745 20.206 85.33 16 79.923 16c-5.554 0-10.072 4.485-10.072 10s4.52 10 10.072 10c4.113 0 7.775-2.453 9.33-6.247l.317-.773h-1.616zm-7.884-11.826c4.19 0 7.782 3.102 8.438 7.166H71.474c.65-4.054 4.185-7.166 8.449-7.166M62.24 26.4a7.9 7.9 0 0 0-1.833-.934 45 45 0 0 0-1.971-.66q-.987-.306-1.939-.62a7.7 7.7 0 0 1-1.581-.717 3.4 3.4 0 0 1-1.035-.957c-.24-.343-.356-.774-.356-1.316 0-.471.104-.911.317-1.344.216-.436.524-.83.915-1.168a4.8 4.8 0 0 1 1.456-.84 5.4 5.4 0 0 1 1.888-.318c.748 0 1.376.079 1.87.234.512.162.939.338 1.261.52q.487.278.732.491l.863.752.992-1.228-.42-.367c-.772-.677-1.589-1.174-2.423-1.475-.828-.3-1.796-.453-2.875-.453a7 7 0 0 0-2.449.418 6.2 6.2 0 0 0-1.93 1.128 5.2 5.2 0 0 0-1.277 1.652 4.5 4.5 0 0 0-.463 1.996c0 .83.184 1.543.548 2.118.35.553.81 1.02 1.371 1.393a8.4 8.4 0 0 0 1.825.89 45 45 0 0 0 1.973.641 59 59 0 0 1 1.928.617 7 7 0 0 1 1.575.749c.428.28.778.623 1.037 1.017.242.367.364.852.364 1.442 0 .617-.106 1.201-.317 1.73-.209.525-.519.99-.924 1.383q-.616.599-1.526.947c-.61.234-1.332.353-2.142.353-.815 0-1.505-.097-2.049-.285-.558-.195-1.023-.413-1.384-.646a8 8 0 0 1-.866-.661 22 22 0 0 1-.46-.411l-.392-.361-1.162 1.131.454.415c.387.352.776.672 1.158.951.405.296.852.55 1.324.752.469.201.98.36 1.523.471.546.113 1.169.17 1.85.17.996 0 1.904-.157 2.697-.467.795-.313 1.48-.742 2.034-1.276a5.45 5.45 0 0 0 1.285-1.916c.29-.724.436-1.506.436-2.32 0-.849-.182-1.581-.544-2.174a4.8 4.8 0 0 0-1.359-1.446M35.598 16c-5.555 0-10.075 4.485-10.075 10s4.52 10 10.075 10 10.074-4.485 10.074-10-4.519-10-10.074-10m0 18.505c-4.724 0-8.568-3.815-8.568-8.503s3.843-8.504 8.568-8.504c4.723 0 8.566 3.816 8.566 8.504s-3.842 8.503-8.566 8.503M20.15 36h-1.512v-4.74A10.09 10.09 0 0 1 10.075 36C4.52 36 0 31.514 0 26s4.52-10 10.075-10c3.612 0 6.784 1.897 8.563 4.74V0h1.511zM10.074 17.498c-4.724 0-8.567 3.816-8.567 8.504s3.843 8.504 8.567 8.504c4.671 0 8.477-3.73 8.563-8.346v-.317c-.086-4.615-3.894-8.345-8.563-8.345"></path></svg>