
<svg width="173" height="44" viewBox="0 0 173 44" fill="none" xmlns="http://www.w3.org/2000/svg">
<path d="M148.141 17.4297H153.924C157.49 17.4297 158.719 18.538 158.719 21.5V28.0489C158.719 28.3511 158.578 28.4922 158.276 28.4922H156.301C156.019 28.4922 155.858 28.3511 155.858 28.0489V22.2053C155.858 20.4119 155.455 19.9888 153.783 19.9888H148.423C146.69 19.9888 146.226 20.4925 146.226 22.2053V28.0489C146.226 28.3511 146.085 28.4922 145.783 28.4922H143.808C143.506 28.4922 143.365 28.3511 143.365 28.0489V21.5C143.365 18.538 144.594 17.4297 148.141 17.4297Z" fill="#123F30"/>
<path d="M130.525 17.4294H136.228C139.754 17.4294 141.024 18.4974 141.024 21.4998V24.4216C141.024 27.424 139.754 28.492 136.228 28.492H130.525C126.999 28.492 125.75 27.424 125.75 24.4216V21.4998C125.75 18.4974 126.999 17.4294 130.525 17.4294ZM128.611 22.0036V23.9178C128.611 25.6105 129.054 26.0336 130.807 26.0336H135.946C137.719 26.0336 138.162 25.6105 138.162 23.9178V22.0036C138.162 20.3311 137.719 19.9079 135.946 19.9079H130.807C129.054 19.9079 128.611 20.3311 128.611 22.0036Z" fill="#123F30"/>
<path d="M122.678 17.4297H124.895C125.177 17.4297 125.298 17.6916 125.156 17.9334L117.419 31.5752C116.895 32.5223 115.928 32.9454 114.235 32.9454H112.824C112.583 32.9454 112.462 32.8245 112.462 32.5827V30.6684C112.462 30.4266 112.583 30.3057 112.824 30.3057H114.275C114.819 30.3057 115.122 30.1848 115.303 29.8423L116.25 28.1899C115.545 28.1496 115.162 27.928 114.84 27.3235L109.399 17.9334C109.258 17.6916 109.379 17.4297 109.661 17.4297H111.998C112.24 17.4297 112.381 17.5103 112.482 17.7118L116.955 25.4898C117.137 25.7921 117.217 25.913 117.519 25.9533L122.194 17.7118C122.315 17.5103 122.436 17.4297 122.678 17.4297Z" fill="#123F30"/>
<path d="M97.3885 17.4296H104.965V13.8227C104.965 13.5204 105.126 13.3794 105.408 13.3794H107.383C107.685 13.3794 107.826 13.5204 107.826 13.8227V24.4218C107.826 27.404 106.597 28.4921 103.031 28.4921H97.3885C93.8421 28.4921 92.6129 27.404 92.6129 24.4218V21.5C92.6129 18.5379 93.8421 17.4296 97.3885 17.4296ZM102.748 25.9935C104.481 25.9935 104.965 25.5703 104.965 23.8575V19.9282H97.6706C95.9377 19.9282 95.4742 20.3514 95.4742 22.0642V23.8575C95.4742 25.5703 95.9377 25.9935 97.6706 25.9935H102.748Z" fill="#123F30"/>
<path d="M77.1367 17.4297H85.8215C89.3881 17.4297 90.6172 18.538 90.6172 21.5V26.8802C90.6172 28.1698 90.315 28.4922 89.1261 28.4922H79.5346C77.2173 28.4922 76.4314 27.7063 76.4314 25.6309V24.6636C76.4314 22.7897 77.3584 21.8829 79.5346 21.8829H87.7559V21.6814C87.7559 20.3918 87.2723 19.9283 85.5394 19.9283H77.1367C76.8949 19.9283 76.774 19.8074 76.774 19.5656V17.7924C76.774 17.5506 76.8949 17.4297 77.1367 17.4297ZM87.1312 26.0943C87.5746 26.0943 87.7559 25.913 87.7559 25.4294V23.9584H80.3809C79.5144 23.9584 79.2726 24.2002 79.2726 24.8047V25.2279C79.2726 25.913 79.5144 26.0943 80.3809 26.0943H87.1312Z" fill="#123F30"/>
<path d="M69.2344 17.4294H74.8765C75.1183 17.4294 75.2392 17.5503 75.2392 17.7921V19.5654C75.2392 19.8072 75.1183 19.9281 74.8765 19.9281H69.5165C67.7634 19.9281 67.3201 20.3714 67.3201 22.064V28.0486C67.3201 28.3509 67.179 28.492 66.8768 28.492H64.9021C64.5998 28.492 64.4588 28.3509 64.4588 28.0486V21.4998C64.4588 18.5377 65.6879 17.4294 69.2344 17.4294Z" fill="#123F30"/>
<path d="M46.935 14.387H62.6926C62.9948 14.387 63.156 14.528 63.156 14.8303V16.805C63.156 17.1073 62.9948 17.2483 62.6926 17.2483H56.3452V28.0489C56.3452 28.3511 56.2243 28.4922 55.9221 28.4922H53.7257C53.4436 28.4922 53.2824 28.3511 53.2824 28.0489V17.2483H46.935C46.6529 17.2483 46.4917 17.1073 46.4917 16.805V14.8303C46.4917 14.528 46.6529 14.387 46.935 14.387Z" fill="#123F30"/>
<path d="M14.9609 15.5159C14.262 14.0315 17.1581 11.1977 18.8498 10.4011L21.5075 9.14971C23.1914 8.35684 27.1454 7.95842 27.8411 9.43598C27.8805 9.51962 27.8352 9.6238 27.7398 9.66868L15.1848 15.5803C15.0973 15.6215 14.9971 15.5927 14.9609 15.5159Z" fill="#0F3325" fill-opacity="0.4"/>
<path d="M12.6551 20.7851C12.0048 19.4041 12.5973 17.7574 13.9783 17.1071L16.4789 15.9296C16.8392 15.76 17.2688 15.9145 17.4384 16.2748L18.0186 17.507C18.2636 18.0274 18.0404 18.6479 17.52 18.8929L13.1349 20.9577C12.9547 21.0426 12.7399 20.9653 12.6551 20.7851Z" fill="#0F3325" fill-opacity="0.4"/>
<path d="M24.4017 13.1289C24.2041 12.7092 24.3841 12.2088 24.8038 12.0112L29.3429 9.87396C30.753 9.20999 32.4343 9.81487 33.0983 11.225C33.1694 11.3761 33.1046 11.5562 32.9535 11.6273L26.3172 14.7521C25.7968 14.9972 25.1763 14.7739 24.9312 14.2535L24.4017 13.1289Z" fill="#0F3325" fill-opacity="0.4"/>
<path d="M28.8566 15.6664C28.6116 15.146 28.8348 14.5255 29.3552 14.2805L33.424 12.3646C34.5595 11.83 35.9133 12.317 36.4479 13.4524C36.6484 13.8782 36.4657 14.3859 36.04 14.5864L30.6862 17.1073C30.1658 17.3523 29.5453 17.1291 29.3003 16.6087L28.8566 15.6664Z" fill="#0F3325" fill-opacity="0.4"/>
<path d="M12.4207 24.3637C11.9714 23.4096 12.3807 22.272 13.3347 21.8228L20.5588 18.4213C21.0791 18.1763 21.6997 18.3995 21.9447 18.9199L22.3884 19.8622C22.6334 20.3826 22.4102 21.0031 21.8898 21.2481L13.8805 25.0193C13.3601 25.2644 12.7396 25.0411 12.4946 24.5207L12.4207 24.3637Z" fill="#0F3325" fill-opacity="0.4"/>
<path d="M33.1533 17.8641C32.9083 17.3437 33.1315 16.7232 33.6519 16.4782L36.4787 15.1471C36.9991 14.9021 37.6196 15.1253 37.8646 15.6457L38.3822 16.745C38.6273 17.2654 38.404 17.8859 37.8836 18.131L35.0568 19.462C34.5364 19.707 33.9159 19.4838 33.6709 18.9634L33.1533 17.8641Z" fill="#0F3325" fill-opacity="0.4"/>
<path d="M18.5704 32.9368C18.4574 32.6966 18.5604 32.4102 18.8006 32.2971L23.234 30.2096C23.7544 29.9646 24.3749 30.1878 24.62 30.7082L25.0864 31.6988C25.3189 32.1925 25.1071 32.7812 24.6134 33.0136L22.0886 34.2025C20.7676 34.8245 19.1925 34.2578 18.5704 32.9368Z" fill="#0F3325" fill-opacity="0.4"/>
<path d="M31.5277 27.4545C31.2827 26.9341 31.5059 26.3136 32.0263 26.0685L38.4331 23.0519C38.6242 22.9619 38.8522 23.0439 38.9422 23.235C39.5873 24.6051 38.9996 26.2386 37.6296 26.8837L33.3573 28.8953C32.8369 29.1404 32.2164 28.9171 31.9714 28.3967L31.5277 27.4545Z" fill="#0F3325" fill-opacity="0.4"/>
<path d="M15.2207 30.7192C14.9757 30.1988 15.1989 29.5783 15.7193 29.3333L23.8856 25.4881C24.406 25.2431 25.0265 25.4663 25.2715 25.9867L25.7152 26.9289C25.9602 27.4493 25.737 28.0698 25.2166 28.3149L17.9926 31.7164C16.9518 32.2064 15.7108 31.76 15.2207 30.7192Z" fill="#0F3325" fill-opacity="0.4"/>
<path d="M32.1861 22.7333C31.941 22.2129 32.1643 21.5924 32.6847 21.3474L37.8043 18.9367C38.2727 18.7162 38.8311 18.9171 39.0516 19.3855C39.5662 20.4783 39.0974 21.7814 38.0046 22.2959L34.0157 24.1742C33.4953 24.4192 32.8748 24.196 32.6298 23.6756L32.1861 22.7333Z" fill="#0F3325" fill-opacity="0.4"/>
<path d="M24.0836 34.382C24.055 34.3213 24.0856 34.2468 24.1518 34.2156L36.6852 28.3142C36.8789 28.223 37.1036 28.2929 37.1872 28.4703C37.8276 29.8305 34.8938 32.5591 33.4086 33.2584L30.281 34.731C28.6684 35.4903 24.779 35.859 24.0836 34.382Z" fill="#0F3325" fill-opacity="0.4"/>
<rect x="17.9141" y="15.2581" width="5.90124" height="3.12419" rx="1.04149" transform="rotate(-25.2138 17.9141 15.2581)" fill="#123F30"/>
<rect x="22.2871" y="17.6125" width="5.90124" height="3.12419" rx="1.04149" transform="rotate(-25.2138 22.2871 17.6125)" fill="#123F30"/>
<rect x="26.5859" y="19.8108" width="5.90124" height="3.29775" rx="1.04149" transform="rotate(-25.2138 26.5859 19.8108)" fill="#123F30"/>
<rect x="12.7676" y="26.3176" width="14.4073" height="3.29806" rx="1.04149" transform="rotate(-25.2138 12.7676 26.3176)" fill="#123F30"/>
<rect x="24.957" y="29.4001" width="5.90124" height="3.12419" rx="1.04149" transform="rotate(-25.2138 24.957 29.4001)" fill="#123F30"/>
<rect x="25.6152" y="24.6794" width="5.90124" height="3.12419" rx="1.04149" transform="rotate(-25.2138 25.6152 24.6794)" fill="#123F30"/>
</svg>
