
<svg xmlns="http://www.w3.org/2000/svg" width="75" height="40" fill="none" viewBox="0 0 75 40"><path fill="#00AEEF" d="M18.879 25.409a.05.05 0 0 1-.015.036.05.05 0 0 1-.036.015H.575a.051.051 0 0 1-.045-.027.05.05 0 0 1 0-.051l8.633-14.147a.046.046 0 0 0-.016-.063.04.04 0 0 0-.023-.006H1.309a.05.05 0 0 1-.036-.015.05.05 0 0 1-.015-.037V6.367q0-.022.015-.037a.05.05 0 0 1 .036-.015h16.815a.05.05 0 0 1 .045.026.05.05 0 0 1 0 .052L9.535 20.537a.046.046 0 0 0 .016.063.04.04 0 0 0 .023.006h9.255a.05.05 0 0 1 .047.032l.003.02zM50.458.806a.045.045 0 0 0-.044-.046h-5.22a.04.04 0 0 0-.032.014.05.05 0 0 0-.014.032V26.51q0 .018.014.032.013.012.031.013h5.222a.05.05 0 0 0 .032-.013.05.05 0 0 0 .013-.032zM31.572 5.299c-2.066 0-4.086.621-5.804 1.786a10.57 10.57 0 0 0-3.848 4.758 10.75 10.75 0 0 0-.594 6.125 10.65 10.65 0 0 0 2.859 5.429 10.4 10.4 0 0 0 5.349 2.901c2.026.41 4.127.2 6.036-.603a10.5 10.5 0 0 0 4.688-3.905 10.7 10.7 0 0 0 1.76-5.89c0-2.812-1.1-5.508-3.06-7.496a10.37 10.37 0 0 0-7.386-3.105m-.187 16.391c-1.128 0-2.23-.34-3.167-.976a5.77 5.77 0 0 1-2.1-2.597 5.87 5.87 0 0 1-.324-3.343 5.8 5.8 0 0 1 1.56-2.962 5.68 5.68 0 0 1 2.92-1.584 5.63 5.63 0 0 1 3.294.329 5.7 5.7 0 0 1 2.56 2.13 5.862 5.862 0 0 1 .528 5.43 5.8 5.8 0 0 1-1.237 1.878 5.7 5.7 0 0 1-1.851 1.255 5.6 5.6 0 0 1-2.183.44M64.056 5.299c-2.066 0-4.086.621-5.804 1.786a10.57 10.57 0 0 0-3.847 4.758 10.75 10.75 0 0 0-.595 6.125 10.65 10.65 0 0 0 2.86 5.429 10.4 10.4 0 0 0 5.348 2.901c2.027.41 4.127.2 6.036-.603a10.5 10.5 0 0 0 4.688-3.905 10.7 10.7 0 0 0 1.761-5.89c0-2.812-1.1-5.508-3.06-7.496a10.37 10.37 0 0 0-7.387-3.105m-.184 16.391c-1.127 0-2.23-.34-3.167-.976a5.77 5.77 0 0 1-2.1-2.597 5.87 5.87 0 0 1-.324-3.343 5.8 5.8 0 0 1 1.56-2.962 5.68 5.68 0 0 1 2.92-1.584 5.63 5.63 0 0 1 3.294.329 5.7 5.7 0 0 1 2.56 2.13 5.85 5.85 0 0 1 .527 5.43 5.8 5.8 0 0 1-1.236 1.878 5.7 5.7 0 0 1-1.85 1.255 5.6 5.6 0 0 1-2.184.44M64.184 34.51a.046.046 0 0 0 0-.069l-2.873-2.92a.045.045 0 0 0-.056 0 24.25 24.25 0 0 1-13.51 4.07 24.26 24.26 0 0 1-13.487-4.153.05.05 0 0 0-.063 0l-2.875 2.917a.046.046 0 0 0 0 .069 28.36 28.36 0 0 0 16.416 5.301 28.36 28.36 0 0 0 16.443-5.21z"/></svg>